<svg width="18" height="18" viewBox="0 0 18 18" fill="none" xmlns="http://www.w3.org/2000/svg">
<path d="M10.9104 4.05809C11.6586 4.20378 12.3462 4.56898 12.8852 5.10696C13.4242 5.64494 13.7901 6.33121 13.9361 7.07795L10.9104 4.05809ZM10.9104 1C12.4648 1.17235 13.9143 1.8671 15.0209 2.97018C16.1275 4.07326 16.8254 5.5191 17 7.0703L10.9104 1ZM16.234 13.1712V15.4648C16.2349 15.6777 16.1912 15.8884 16.1057 16.0835C16.0203 16.2786 15.8949 16.4537 15.7377 16.5977C15.5805 16.7416 15.3949 16.8512 15.1928 16.9194C14.9908 16.9876 14.7766 17.013 14.5642 16.9938C12.2071 16.7382 9.94297 15.9343 7.95371 14.6467C6.10295 13.4729 4.53384 11.9068 3.35779 10.0596C2.06326 8.0651 1.25765 5.79431 1.00622 3.43118C0.987076 3.21976 1.01225 3.00669 1.08014 2.80551C1.14802 2.60434 1.25713 2.41948 1.40052 2.2627C1.54391 2.10592 1.71843 1.98066 1.91298 1.89489C2.10753 1.80912 2.31785 1.76472 2.53053 1.76452H4.82849C5.20022 1.76087 5.56061 1.89226 5.84247 2.13419C6.12433 2.37613 6.30843 2.71211 6.36046 3.0795C6.45745 3.81349 6.63732 4.53418 6.89665 5.22781C6.99971 5.50145 7.02201 5.79884 6.96092 6.08474C6.89983 6.37065 6.7579 6.63308 6.55195 6.84095L5.57915 7.81189C6.66958 9.7259 8.25739 11.3107 10.1751 12.399L11.1479 11.4281C11.3561 11.2225 11.6191 11.0809 11.9055 11.0199C12.192 10.9589 12.4899 10.9812 12.7641 11.084C13.4591 11.3429 14.1811 11.5224 14.9165 11.6192C15.2886 11.6716 15.6284 11.8587 15.8713 12.1448C16.1143 12.431 16.2433 12.7962 16.234 13.1712Z" stroke="black" stroke-linecap="round" stroke-linejoin="round"/>
</svg>
